<?xml version="1.0" encoding="utf-8"?>
<!-- Generator: Adobe Illustrator 19.2.0, SVG Export Plug-In . SVG Version: 6.00 Build 0)  -->
<svg version="1.1" id="Layer_1" xmlns="http://www.w3.org/2000/svg" xmlns:xlink="http://www.w3.org/1999/xlink" x="0px" y="0px"
	 viewBox="0 0 95.2 54.1" style="enable-background:new 0 0 95.2 54.1;" xml:space="preserve">
<style type="text/css">
	.st0{clip-path:url(#SVGID_2_);}
	.st1{clip-path:url(#SVGID_4_);}
	.st2{clip-path:url(#SVGID_6_);}
	.st3{clip-path:url(#SVGID_8_);}
	.st4{clip-path:url(#SVGID_10_);}
</style>
<g>
	<path d="M1.8,51.6H1c-0.2,0-0.3-0.1-0.3-0.3S0.8,51,1,51h1.4c0.1,0,0.2,0,0.2-0.1c0.1-0.1,0.1-0.1,0.1-0.2c0-0.1,0-0.2-0.1-0.2
		c-0.1-0.1-0.1-0.1-0.2-0.1H1c-0.7,0-1,0.3-1,0.9c0,0.6,0.3,0.9,1,0.9h0.8c0.2,0,0.3,0.1,0.3,0.3S2,52.8,1.8,52.8H0.3
		c-0.1,0-0.2,0-0.2,0.1C0,52.9,0,53,0,53.1c0,0.1,0,0.2,0.1,0.2c0.1,0.1,0.1,0.1,0.2,0.1h1.4c0.7,0,1-0.3,1-0.9S2.5,51.6,1.8,51.6"
		/>
	<path d="M6.6,50.4c-0.1,0-0.2,0-0.2,0.1c0,0,0,0,0,0l-0.1,0.1l-0.1-0.1c-0.2-0.1-0.5-0.2-0.8-0.2c-0.5,0-0.8,0.1-1.2,0.4
		c-0.3,0.3-0.5,0.6-0.5,1.1c0,0.4,0.2,0.8,0.5,1.1c0.3,0.3,0.7,0.4,1.2,0.4c0.3,0,0.6-0.1,0.8-0.2l0.1-0.1l0.1,0.1c0,0,0,0,0,0l0,0
		c0.1,0.1,0.1,0.1,0.2,0.1c0.1,0,0.2,0,0.2-0.1c0.1-0.1,0.1-0.1,0.1-0.2v-2.4c0-0.1,0-0.2-0.1-0.2C6.8,50.4,6.7,50.4,6.6,50.4
		 M6,52.5c-0.2,0.2-0.4,0.3-0.7,0.3c-0.3,0-0.5-0.1-0.7-0.3c-0.2-0.2-0.3-0.4-0.3-0.6c0-0.2,0.1-0.5,0.3-0.6C4.8,51.1,5,51,5.3,51
		c0.3,0,0.5,0.1,0.7,0.3c0.2,0.2,0.3,0.4,0.3,0.6C6.3,52.1,6.2,52.3,6,52.5"/>
	<path d="M11.3,50.7c0-0.1,0-0.2-0.1-0.2c-0.1-0.1-0.1-0.1-0.2-0.1c-0.1,0-0.2,0-0.2,0.1c-0.1,0.1-0.1,0.1-0.1,0.2v1.2
		c0,0.2-0.1,0.5-0.3,0.6c-0.2,0.2-0.4,0.3-0.7,0.3c-0.3,0-0.5-0.1-0.7-0.3c-0.2-0.2-0.3-0.4-0.3-0.6v-1.2c0-0.1,0-0.2-0.1-0.2
		c-0.1-0.1-0.1-0.1-0.2-0.1c-0.1,0-0.2,0-0.2,0.1C8,50.5,8,50.6,8,50.7v1.2c0,0.4,0.2,0.8,0.5,1.1c0.3,0.3,0.7,0.4,1.2,0.4
		c0.5,0,0.8-0.1,1.2-0.4c0.3-0.3,0.5-0.6,0.5-1.1V50.7z"/>
	<path d="M9.9,50.1C10,50.1,10,50.1,9.9,50.1C10,50.1,10,50.1,9.9,50.1l0.6-0.4c0.1-0.1,0.2-0.1,0.1-0.2c0-0.1-0.1-0.2-0.2-0.2
		c0,0,0,0-0.1,0c0,0-0.1,0-0.1,0l-0.5,0.4c-0.1,0.1-0.1,0.1-0.1,0.2C9.8,50,9.8,50.1,9.9,50.1"/>
	<path d="M15.2,49.6c-0.1,0-0.2,0-0.2,0.1c-0.1,0.1-0.1,0.1-0.1,0.2v0.7l-0.3-0.1c-0.2-0.1-0.5-0.1-0.7-0.1c-0.5,0-0.8,0.1-1.2,0.4
		c-0.3,0.3-0.5,0.6-0.5,1.1c0,0.4,0.2,0.8,0.5,1.1c0.3,0.3,0.7,0.4,1.2,0.4c0.3,0,0.6-0.1,0.8-0.2l0.1-0.1l0.1,0.1c0,0,0,0,0,0l0,0
		c0.1,0.1,0.1,0.1,0.2,0.1c0.1,0,0.2,0,0.2-0.1c0.1-0.1,0.1-0.1,0.1-0.2V50c0-0.1,0-0.2-0.1-0.2C15.4,49.7,15.3,49.6,15.2,49.6
		 M14.5,52.5c-0.2,0.2-0.4,0.3-0.7,0.3c-0.3,0-0.5-0.1-0.7-0.3c-0.2-0.2-0.3-0.4-0.3-0.6c0-0.2,0.1-0.5,0.3-0.6
		c0.2-0.2,0.4-0.3,0.7-0.3c0.3,0,0.5,0.1,0.7,0.3c0.2,0.2,0.3,0.4,0.3,0.6C14.8,52.1,14.7,52.3,14.5,52.5"/>
	<path d="M18.9,50.4h-0.8c-0.5,0-0.8,0.1-1.2,0.4c-0.3,0.3-0.5,0.6-0.5,1.1s0.2,0.8,0.5,1.1c0.3,0.3,0.7,0.4,1.2,0.4h0.8
		c0.1,0,0.2,0,0.2-0.1c0.1-0.1,0.1-0.1,0.1-0.2c0-0.1,0-0.2-0.1-0.2c-0.1-0.1-0.1-0.1-0.2-0.1h-0.8c-0.3,0-0.5-0.1-0.7-0.3
		c0,0,0,0,0,0l-0.3-0.3h1.8c0.1,0,0.2,0,0.2-0.1c0.1-0.1,0.1-0.1,0.1-0.2c0-0.1,0-0.2-0.1-0.2c-0.1-0.1-0.1-0.1-0.2-0.1h-1.8
		l0.2-0.3c0,0,0,0,0,0c0.2-0.2,0.4-0.3,0.7-0.3h0.8c0.1,0,0.2,0,0.2-0.1c0.1-0.1,0.1-0.1,0.1-0.2c0-0.1,0-0.2-0.1-0.2
		C19.1,50.4,19,50.4,18.9,50.4"/>
	<path d="M25,50.4c-0.1,0-0.2,0-0.2,0.1c0,0,0,0,0,0l-0.1,0.1l-0.1-0.1c-0.2-0.1-0.5-0.2-0.8-0.2c-0.5,0-0.8,0.1-1.2,0.4
		c-0.3,0.3-0.5,0.6-0.5,1.1c0,0.4,0.2,0.8,0.5,1.1c0.3,0.3,0.7,0.4,1.2,0.4c0.3,0,0.5,0,0.7-0.1l0.3-0.1v0.7c0,0.1,0,0.2,0.1,0.2
		c0.1,0.1,0.1,0.1,0.2,0.1c0.1,0,0.2,0,0.2-0.1c0.1-0.1,0.1-0.1,0.1-0.2v-3.1c0-0.1,0-0.2-0.1-0.2C25.2,50.4,25.1,50.4,25,50.4
		 M24.4,52.5c-0.2,0.2-0.4,0.3-0.7,0.3c-0.3,0-0.5-0.1-0.7-0.3c-0.2-0.2-0.3-0.4-0.3-0.6c0-0.2,0.1-0.5,0.3-0.6
		c0.2-0.2,0.4-0.3,0.7-0.3c0.3,0,0.5,0.1,0.7,0.3c0.2,0.2,0.3,0.4,0.3,0.6C24.6,52.1,24.5,52.3,24.4,52.5"/>
	<path d="M29.7,50.7c0-0.1,0-0.2-0.1-0.2c-0.1-0.1-0.1-0.1-0.2-0.1s-0.2,0-0.2,0.1C29,50.5,29,50.6,29,50.7v1.2
		c0,0.2-0.1,0.5-0.3,0.6c-0.2,0.2-0.4,0.3-0.7,0.3c-0.3,0-0.5-0.1-0.7-0.3c-0.2-0.2-0.3-0.4-0.3-0.6v-1.2c0-0.1,0-0.2-0.1-0.2
		c-0.1-0.1-0.1-0.1-0.2-0.1c-0.1,0-0.2,0-0.2,0.1c-0.1,0.1-0.1,0.1-0.1,0.2v1.2c0,0.4,0.2,0.8,0.5,1.1c0.3,0.3,0.7,0.4,1.2,0.4
		c0.5,0,0.8-0.1,1.2-0.4c0.3-0.3,0.5-0.6,0.5-1.1V50.7z"/>
	<path d="M33,50.4h-0.8c-0.5,0-0.8,0.1-1.2,0.4c-0.3,0.3-0.5,0.6-0.5,1.1s0.2,0.8,0.5,1.1c0.3,0.3,0.7,0.4,1.2,0.4H33
		c0.1,0,0.2,0,0.2-0.1c0.1-0.1,0.1-0.1,0.1-0.2c0-0.1,0-0.2-0.1-0.2c-0.1-0.1-0.1-0.1-0.2-0.1h-0.8c-0.3,0-0.5-0.1-0.7-0.3
		c0,0,0,0,0,0l-0.3-0.3H33c0.1,0,0.2,0,0.2-0.1c0.1-0.1,0.1-0.1,0.1-0.2c0-0.1,0-0.2-0.1-0.2c-0.1-0.1-0.1-0.1-0.2-0.1h-1.8l0.2-0.3
		c0,0,0,0,0,0c0.2-0.2,0.4-0.3,0.7-0.3H33c0.1,0,0.2,0,0.2-0.1c0.1-0.1,0.1-0.1,0.1-0.2c0-0.1,0-0.2-0.1-0.2
		C33.2,50.4,33.1,50.4,33,50.4"/>
	<path d="M38.8,50.4h-1c-0.5,0-0.8,0.1-1.2,0.4c-0.3,0.3-0.5,0.6-0.5,1.1s0.2,0.8,0.5,1.1c0.3,0.3,0.7,0.4,1.2,0.4h1
		c0.1,0,0.2,0,0.2-0.1c0.1-0.1,0.1-0.1,0.1-0.2v-1.2c0-0.1,0-0.2-0.1-0.2c-0.1-0.1-0.1-0.1-0.2-0.1h-1c-0.1,0-0.2,0-0.2,0.1
		c-0.1,0.1-0.1,0.1-0.1,0.2c0,0.1,0,0.2,0.1,0.2c0.1,0.1,0.1,0.1,0.2,0.1h0.7v0.6h-0.7c-0.3,0-0.5-0.1-0.7-0.3
		c-0.2-0.2-0.3-0.4-0.3-0.6c0-0.2,0.1-0.5,0.3-0.6c0.2-0.2,0.4-0.3,0.7-0.3h1c0.1,0,0.2,0,0.2-0.1c0.1-0.1,0.1-0.1,0.1-0.2
		c0-0.1,0-0.2-0.1-0.2C39,50.4,38.9,50.4,38.8,50.4"/>
	<path d="M42.6,50.4h-0.8c-0.5,0-0.8,0.1-1.2,0.4c-0.3,0.3-0.5,0.6-0.5,1.1s0.2,0.8,0.5,1.1c0.3,0.3,0.7,0.4,1.2,0.4h0.8
		c0.1,0,0.2,0,0.2-0.1c0.1-0.1,0.1-0.1,0.1-0.2c0-0.1,0-0.2-0.1-0.2c-0.1-0.1-0.1-0.1-0.2-0.1h-0.8c-0.3,0-0.5-0.1-0.7-0.3
		c0,0,0,0,0,0l-0.3-0.3h1.8c0.1,0,0.2,0,0.2-0.1c0.1-0.1,0.1-0.1,0.1-0.2c0-0.1,0-0.2-0.1-0.2c-0.1-0.1-0.1-0.1-0.2-0.1h-1.8
		l0.2-0.3c0,0,0,0,0,0c0.2-0.2,0.4-0.3,0.7-0.3h0.8c0.1,0,0.2,0,0.2-0.1c0.1-0.1,0.1-0.1,0.1-0.2c0-0.1,0-0.2-0.1-0.2
		C42.8,50.4,42.7,50.4,42.6,50.4"/>
	<path d="M45.5,50.4c-0.5,0-0.8,0.1-1.2,0.4c-0.3,0.3-0.5,0.6-0.5,1.1v1.2c0,0.1,0,0.2,0.1,0.2c0.1,0.1,0.1,0.1,0.2,0.1
		c0.1,0,0.2,0,0.2-0.1c0.1-0.1,0.1-0.1,0.1-0.2v-1.2c0-0.2,0.1-0.5,0.3-0.6c0.2-0.2,0.4-0.3,0.7-0.3c0.1,0,0.2,0,0.2-0.1
		c0.1-0.1,0.1-0.1,0.1-0.2c0-0.1,0-0.2-0.1-0.2C45.7,50.4,45.6,50.4,45.5,50.4"/>
	<path d="M49.3,50.4c-0.1,0-0.2,0-0.2,0.1c0,0,0,0,0,0L49,50.6l-0.1-0.1c-0.2-0.1-0.5-0.2-0.8-0.2c-0.5,0-0.8,0.1-1.2,0.4
		c-0.3,0.3-0.5,0.6-0.5,1.1c0,0.4,0.2,0.8,0.5,1.1c0.3,0.3,0.7,0.4,1.2,0.4c0.3,0,0.6-0.1,0.8-0.2l0.1-0.1l0.1,0.1c0,0,0,0,0,0l0,0
		c0.1,0.1,0.1,0.1,0.2,0.1c0.1,0,0.2,0,0.2-0.1c0.1-0.1,0.1-0.1,0.1-0.2v-2.4c0-0.1,0-0.2-0.1-0.2C49.5,50.4,49.4,50.4,49.3,50.4
		 M48.7,52.5c-0.2,0.2-0.4,0.3-0.7,0.3c-0.3,0-0.5-0.1-0.7-0.3c-0.2-0.2-0.3-0.4-0.3-0.6c0-0.2,0.1-0.5,0.3-0.6
		c0.2-0.2,0.4-0.3,0.7-0.3c0.3,0,0.5,0.1,0.7,0.3c0.2,0.2,0.3,0.4,0.3,0.6C49,52.1,48.9,52.3,48.7,52.5"/>
	<path d="M55.3,50.8c-0.3-0.3-0.7-0.4-1.2-0.4c-0.3,0-0.6,0.1-0.8,0.2l-0.1,0.1l-0.1-0.1c0,0,0,0,0,0c-0.1-0.1-0.1-0.1-0.2-0.1
		c-0.1,0-0.2,0-0.2,0.1c-0.1,0.1-0.1,0.1-0.1,0.2v3.1c0,0.1,0,0.2,0.1,0.2c0.1,0.1,0.1,0.1,0.2,0.1c0.1,0,0.2,0,0.2-0.1
		c0.1-0.1,0.1-0.1,0.1-0.2v-0.7l0.3,0.1c0.2,0.1,0.5,0.1,0.7,0.1c0.5,0,0.8-0.1,1.2-0.4c0.3-0.3,0.5-0.6,0.5-1.1
		C55.7,51.5,55.6,51.1,55.3,50.8 M54.8,52.5c-0.2,0.2-0.4,0.3-0.7,0.3c-0.3,0-0.5-0.1-0.7-0.3c-0.2-0.2-0.3-0.4-0.3-0.6
		c0-0.2,0.1-0.5,0.3-0.6c0.2-0.2,0.4-0.3,0.7-0.3c0.3,0,0.5,0.1,0.7,0.3c0.2,0.2,0.3,0.4,0.3,0.6C55.1,52.1,55,52.3,54.8,52.5"/>
	<path d="M58.3,50.4c-0.5,0-0.8,0.1-1.2,0.4c-0.3,0.3-0.5,0.6-0.5,1.1v1.2c0,0.1,0,0.2,0.1,0.2c0.1,0.1,0.1,0.1,0.2,0.1
		s0.2,0,0.2-0.1c0.1-0.1,0.1-0.1,0.1-0.2v-1.2c0-0.2,0.1-0.5,0.3-0.6c0.2-0.2,0.4-0.3,0.7-0.3c0.1,0,0.2,0,0.2-0.1
		c0.1-0.1,0.1-0.1,0.1-0.2c0-0.1,0-0.2-0.1-0.2C58.5,50.4,58.4,50.4,58.3,50.4"/>
	<path d="M62,50.8c-0.3-0.3-0.7-0.4-1.2-0.4s-0.8,0.1-1.2,0.4c-0.3,0.3-0.5,0.6-0.5,1.1c0,0.4,0.2,0.8,0.5,1.1
		c0.3,0.3,0.7,0.4,1.2,0.4c0.5,0,0.8-0.1,1.2-0.4c0.3-0.3,0.5-0.6,0.5-1.1C62.5,51.5,62.3,51.1,62,50.8 M61.5,52.5
		c-0.2,0.2-0.4,0.3-0.7,0.3c-0.3,0-0.5-0.1-0.7-0.3c-0.2-0.2-0.3-0.4-0.3-0.6c0-0.2,0.1-0.5,0.3-0.6c0.2-0.2,0.4-0.3,0.7-0.3
		c0.3,0,0.5,0.1,0.7,0.3c0.2,0.2,0.3,0.4,0.3,0.6C61.8,52.1,61.7,52.3,61.5,52.5"/>
	<path d="M65.1,51.6h-0.8c-0.2,0-0.3-0.1-0.3-0.3s0.1-0.3,0.3-0.3h1.4c0.1,0,0.2,0,0.2-0.1c0.1-0.1,0.1-0.1,0.1-0.2
		c0-0.1,0-0.2-0.1-0.2c-0.1-0.1-0.1-0.1-0.2-0.1h-1.4c-0.7,0-1,0.3-1,0.9c0,0.6,0.3,0.9,1,0.9h0.8c0.2,0,0.3,0.1,0.3,0.3
		s-0.1,0.3-0.3,0.3h-1.4c-0.1,0-0.2,0-0.2,0.1c-0.1,0.1-0.1,0.1-0.1,0.2c0,0.1,0,0.2,0.1,0.2c0.1,0.1,0.1,0.1,0.2,0.1h1.4
		c0.7,0,1-0.3,1-0.9S65.8,51.6,65.1,51.6"/>
	<path d="M70,50.8c-0.3-0.3-0.7-0.4-1.2-0.4c-0.3,0-0.6,0.1-0.8,0.2l-0.1,0.1l-0.1-0.1c0,0,0,0,0,0c-0.1-0.1-0.1-0.1-0.2-0.1
		c-0.1,0-0.2,0-0.2,0.1c-0.1,0.1-0.1,0.1-0.1,0.2v3.1c0,0.1,0,0.2,0.1,0.2c0.1,0.1,0.1,0.1,0.2,0.1s0.2,0,0.2-0.1
		c0.1-0.1,0.1-0.1,0.1-0.2v-0.7l0.3,0.1c0.2,0.1,0.5,0.1,0.7,0.1c0.5,0,0.8-0.1,1.2-0.4c0.3-0.3,0.5-0.6,0.5-1.1
		C70.4,51.5,70.3,51.1,70,50.8 M69.5,52.5c-0.2,0.2-0.4,0.3-0.7,0.3c-0.3,0-0.5-0.1-0.7-0.3c-0.2-0.2-0.3-0.4-0.3-0.6
		c0-0.2,0.1-0.5,0.3-0.6c0.2-0.2,0.4-0.3,0.7-0.3c0.3,0,0.5,0.1,0.7,0.3c0.2,0.2,0.3,0.4,0.3,0.6C69.8,52.1,69.7,52.3,69.5,52.5"/>
	<path d="M73.8,50.4H73c-0.5,0-0.8,0.1-1.2,0.4c-0.3,0.3-0.5,0.6-0.5,1.1c0,0.4,0.2,0.8,0.5,1.1c0.3,0.3,0.7,0.4,1.2,0.4h0.8
		c0.1,0,0.2,0,0.2-0.1c0.1-0.1,0.1-0.1,0.1-0.2c0-0.1,0-0.2-0.1-0.2c-0.1-0.1-0.1-0.1-0.2-0.1H73c-0.3,0-0.5-0.1-0.7-0.3
		c0,0,0,0,0,0L72,52.2h1.8c0.1,0,0.2,0,0.2-0.1c0.1-0.1,0.1-0.1,0.1-0.2c0-0.1,0-0.2-0.1-0.2c-0.1-0.1-0.1-0.1-0.2-0.1H72l0.2-0.3
		c0,0,0,0,0,0c0.2-0.2,0.4-0.3,0.7-0.3h0.8c0.1,0,0.2,0,0.2-0.1c0.1-0.1,0.1-0.1,0.1-0.2c0-0.1,0-0.2-0.1-0.2
		C74,50.4,73.9,50.4,73.8,50.4"/>
	<path d="M76.7,50.4c-0.5,0-0.8,0.1-1.2,0.4c-0.3,0.3-0.5,0.6-0.5,1.1v1.2c0,0.1,0,0.2,0.1,0.2c0.1,0.1,0.1,0.1,0.2,0.1
		c0.1,0,0.2,0,0.2-0.1c0.1-0.1,0.1-0.1,0.1-0.2v-1.2c0-0.2,0.1-0.5,0.3-0.6c0.2-0.2,0.4-0.3,0.7-0.3c0.1,0,0.2,0,0.2-0.1
		c0.1-0.1,0.1-0.1,0.1-0.2c0-0.1,0-0.2-0.1-0.2C76.9,50.4,76.8,50.4,76.7,50.4"/>
	<path d="M78.3,50.4c-0.1,0-0.2,0-0.2,0.1C78,50.5,78,50.6,78,50.7v2.4c0,0.1,0,0.2,0.1,0.2c0.1,0.1,0.1,0.1,0.2,0.1
		c0.1,0,0.2,0,0.2-0.1c0.1-0.1,0.1-0.1,0.1-0.2v-2.4c0-0.1,0-0.2-0.1-0.2C78.5,50.4,78.4,50.4,78.3,50.4"/>
	<path d="M82.6,49.6c-0.1,0-0.2,0-0.2,0.1c-0.1,0.1-0.1,0.1-0.1,0.2v0.7L82,50.5c-0.2-0.1-0.5-0.1-0.7-0.1c-0.5,0-0.8,0.1-1.2,0.4
		c-0.3,0.3-0.5,0.6-0.5,1.1c0,0.4,0.2,0.8,0.5,1.1c0.3,0.3,0.7,0.4,1.2,0.4c0.3,0,0.6-0.1,0.8-0.2l0.1-0.1l0.1,0.1c0,0,0,0,0,0l0,0
		c0.1,0.1,0.1,0.1,0.2,0.1c0.1,0,0.2,0,0.2-0.1c0.1-0.1,0.1-0.1,0.1-0.2V50c0-0.1,0-0.2-0.1-0.2C82.8,49.7,82.7,49.6,82.6,49.6
		 M82,52.5c-0.2,0.2-0.4,0.3-0.7,0.3c-0.3,0-0.5-0.1-0.7-0.3c-0.2-0.2-0.3-0.4-0.3-0.6c0-0.2,0.1-0.5,0.3-0.6
		c0.2-0.2,0.4-0.3,0.7-0.3c0.3,0,0.5,0.1,0.7,0.3c0.2,0.2,0.3,0.4,0.3,0.6C82.2,52.1,82.2,52.3,82,52.5"/>
	<path d="M86.9,50.4c-0.1,0-0.2,0-0.2,0.1c0,0,0,0,0,0l-0.1,0.1l-0.1-0.1c-0.2-0.1-0.5-0.2-0.8-0.2c-0.5,0-0.8,0.1-1.2,0.4
		c-0.3,0.3-0.5,0.6-0.5,1.1c0,0.4,0.2,0.8,0.5,1.1c0.3,0.3,0.7,0.4,1.2,0.4c0.3,0,0.6-0.1,0.8-0.2l0.1-0.1l0.1,0.1c0,0,0,0,0,0l0,0
		c0.1,0.1,0.1,0.1,0.2,0.1c0.1,0,0.2,0,0.2-0.1c0.1-0.1,0.1-0.1,0.1-0.2v-2.4c0-0.1,0-0.2-0.1-0.2C87,50.4,87,50.4,86.9,50.4
		 M86.2,52.5c-0.2,0.2-0.4,0.3-0.7,0.3c-0.3,0-0.5-0.1-0.7-0.3c-0.2-0.2-0.3-0.4-0.3-0.6c0-0.2,0.1-0.5,0.3-0.6
		c0.2-0.2,0.4-0.3,0.7-0.3c0.3,0,0.5,0.1,0.7,0.3c0.2,0.2,0.3,0.4,0.3,0.6C86.5,52.1,86.4,52.3,86.2,52.5"/>
	<path d="M91.1,49.6c-0.1,0-0.2,0-0.2,0.1c-0.1,0.1-0.1,0.1-0.1,0.2v0.7l-0.3-0.1c-0.2-0.1-0.5-0.1-0.7-0.1c-0.5,0-0.8,0.1-1.2,0.4
		c-0.3,0.3-0.5,0.6-0.5,1.1c0,0.4,0.2,0.8,0.5,1.1c0.3,0.3,0.7,0.4,1.2,0.4c0.3,0,0.6-0.1,0.8-0.2l0.1-0.1l0.1,0.1c0,0,0,0,0,0l0,0
		c0.1,0.1,0.1,0.1,0.2,0.1c0.1,0,0.2,0,0.2-0.1c0.1-0.1,0.1-0.1,0.1-0.2V50c0-0.1,0-0.2-0.1-0.2C91.3,49.7,91.2,49.6,91.1,49.6
		 M90.5,52.5c-0.2,0.2-0.4,0.3-0.7,0.3c-0.3,0-0.5-0.1-0.7-0.3c-0.2-0.2-0.3-0.4-0.3-0.6c0-0.2,0.1-0.5,0.3-0.6
		c0.2-0.2,0.4-0.3,0.7-0.3s0.5,0.1,0.7,0.3c0.2,0.2,0.3,0.4,0.3,0.6C90.8,52.1,90.7,52.3,90.5,52.5"/>
	<path d="M94.9,51.6h-1.8l0.2-0.3c0,0,0,0,0,0c0.2-0.2,0.4-0.3,0.7-0.3h0.8c0.1,0,0.2,0,0.2-0.1c0.1-0.1,0.1-0.1,0.1-0.2
		c0-0.1,0-0.2-0.1-0.2c-0.1-0.1-0.1-0.1-0.2-0.1h-0.8c-0.5,0-0.8,0.1-1.2,0.4c-0.3,0.3-0.5,0.6-0.5,1.1c0,0.4,0.2,0.8,0.5,1.1
		c0.3,0.3,0.7,0.4,1.2,0.4h0.8c0.1,0,0.2,0,0.2-0.1c0.1-0.1,0.1-0.1,0.1-0.2c0-0.1,0-0.2-0.1-0.2c-0.1-0.1-0.1-0.1-0.2-0.1h-0.8
		c-0.3,0-0.5-0.1-0.7-0.3c0,0,0,0,0,0l-0.3-0.3h1.8c0.1,0,0.2,0,0.2-0.1c0.1-0.1,0.1-0.1,0.1-0.2c0-0.1,0-0.2-0.1-0.2
		C95.1,51.6,95,51.6,94.9,51.6"/>
	<path d="M41.5,4.7C45,2.2,48.7,1.9,52.6,4c3.6,2.2,5.3,5.4,4.9,9.6c-0.1,1.8-0.8,3.4-1.9,4.9c-0.5,0.7-1.2,1.3-2,1.9
		c0,0,0.2-7.5-0.1-9.3c-0.1-0.6-0.4-1.1-0.7-1.6c-0.4-0.7-1-1.4-1.7-1.9c-0.7-0.5-1.4-0.8-2.2-1c-0.8-0.2-1.6-0.2-2.4-0.1
		c-0.9,0.1-1.7,0.5-2.4,0.9c-0.8,0.6-1.5,1.3-2,2.1c-0.3,0.6-0.5,1.2-0.7,1.8c-0.1,0.5-0.1,1-0.1,1.4c0,2.4,0,4.9,0,7.3
		c0,0-0.8-0.6-1.1-0.9c-0.8-0.8-1.4-1.7-1.9-2.8c-0.4-0.8-0.6-1.6-0.7-2.5c0-0.2-0.1-0.5-0.1-0.7c0-0.3,0-0.6,0-1c0.1,0,0,0.2,0,0.1
		c-0.1-4,0.1-8.6,0.1-12.5c0.9,0,1.8,0,2.7,0c0.3,0,0.7,0,1,0v4.7C41.4,4.7,41.3,4.7,41.5,4.7"/>
	<path d="M53.8,17.3C53.8,17.3,53.8,17.3,53.8,17.3C53.8,17.3,53.8,17.3,53.8,17.3"/>
	<path d="M51.4,16.9c0,1.5,0,3,0,4.5c0,0.2,0,0.2-0.2,0.3c-0.5,0.2-1,0.4-1.6,0.5c-1,0.2-2,0.3-3.1,0.1c-0.7-0.1-1.4-0.2-2-0.4
		c-0.2-0.1-0.4-0.1-0.6-0.2c-0.1,0-0.1-0.1-0.1-0.2c0-0.8,0-1.6,0-2.3c0-2.2,0-4.4,0-6.6c0-1.4,0.6-2.5,1.8-3.2
		c0.6-0.4,1.4-0.6,2.1-0.5c1.5,0.1,2.6,0.8,3.3,2.2c0.2,0.5,0.3,1,0.3,1.6C51.4,14,51.4,15.4,51.4,16.9"/>
	<g>
		<defs>
			<path id="SVGID_1_" d="M0,36.5h4.8c0-2.9,2.3-5.2,5.2-5.2v-4.7C4.5,26.6,0,31.1,0,36.5"/>
		</defs>
		<use xlink:href="#SVGID_1_"  style="overflow:visible;"/>
		<clipPath id="SVGID_2_">
			<use xlink:href="#SVGID_1_"  style="overflow:visible;"/>
		</clipPath>
		<rect x="0" y="26.6" class="st0" width="10" height="9.9"/>
	</g>
	<g>
		<defs>
			<path id="SVGID_3_" d="M10,31.3c2.9,0,5.3,2.3,5.3,5.2H20c0-5.5-4.5-9.9-10-9.9V31.3z"/>
		</defs>
		<use xlink:href="#SVGID_3_"  style="overflow:visible;"/>
		<clipPath id="SVGID_4_">
			<use xlink:href="#SVGID_3_"  style="overflow:visible;"/>
		</clipPath>
		<rect x="10" y="26.6" class="st1" width="10" height="9.9"/>
	</g>
	<g>
		<defs>
			<path id="SVGID_5_" d="M0,36.5h4.8V25.2c0-2.6-2.1-4.8-4.8-4.8V36.5z"/>
		</defs>
		<use xlink:href="#SVGID_5_"  style="overflow:visible;"/>
		<clipPath id="SVGID_6_">
			<use xlink:href="#SVGID_5_"  style="overflow:visible;"/>
		</clipPath>
		<rect x="0" y="20.5" class="st2" width="4.8" height="16.1"/>
	</g>
	<g>
		<defs>
			<path id="SVGID_7_" d="M15.3,36.4L15.3,36.4c0,2.9-2.3,5.3-5.2,5.3c-2.9,0-5.2-2.3-5.2-5.2H0c0,5.5,4.5,9.9,10,9.9s10-4.5,10-10
				h0c0-2.9,2.3-5.2,5.2-5.2v-4.8C19.7,26.4,15.3,30.9,15.3,36.4"/>
		</defs>
		<use xlink:href="#SVGID_7_"  style="overflow:visible;"/>
		<clipPath id="SVGID_8_">
			<use xlink:href="#SVGID_7_"  style="overflow:visible;"/>
		</clipPath>
		<rect y="26.4" class="st3" width="25.3" height="20"/>
	</g>
	<g>
		<defs>
			<path id="SVGID_9_" d="M25.2,31.2c2.9,0,5.3,2.3,5.3,5.2v10h4.8v-10c0-5.5-4.5-10-10-10V31.2z"/>
		</defs>
		<use xlink:href="#SVGID_9_"  style="overflow:visible;"/>
		<clipPath id="SVGID_10_">
			<use xlink:href="#SVGID_9_"  style="overflow:visible;"/>
		</clipPath>
		<rect x="25.2" y="26.4" class="st4" width="10" height="20"/>
	</g>
	<path d="M55.1,26.6c-0.7,0-1.2,0.2-1.7,0.7c-0.5,0.5-0.7,1-0.7,1.7v7.5c0,1.4-0.5,2.6-1.5,3.6c-1,1-2.2,1.5-3.6,1.5
		c-1.4,0-2.6-0.5-3.6-1.5c-1-1-1.5-2.2-1.5-3.6V29c0-1.3-1.1-2.4-2.4-2.4h0c-1.3,0-2.4,1.1-2.4,2.4v7.5c0,2.8,1,5.1,2.9,7
		c2,2,4.3,2.9,7,2.9c2.8,0,5.1-1,7-2.9c1.9-1.9,2.9-4.3,2.9-7V29c0-0.7-0.2-1.2-0.7-1.7C56.3,26.8,55.8,26.6,55.1,26.6"/>
	<path d="M75.6,27.3c-0.5-0.5-1-0.7-1.7-0.7H61.8c-0.7,0-1.2,0.2-1.7,0.7c-0.5,0.5-0.7,1-0.7,1.7c0,0.7,0.2,1.2,0.7,1.7
		c0.5,0.5,1,0.7,1.7,0.7h3.6v12.6c0,0.7,0.2,1.2,0.7,1.7c0.5,0.5,1,0.7,1.7,0.7c0.7,0,1.2-0.2,1.7-0.7c0.5-0.5,0.7-1,0.7-1.7V31.4
		h3.6c0.7,0,1.2-0.2,1.7-0.7c0.5-0.5,0.7-1,0.7-1.7C76.3,28.3,76,27.8,75.6,27.3"/>
	<path d="M87.6,27.3c-0.5-0.5-1-0.7-1.7-0.7c-2.8,0-5.1,1-7,2.9c-2,2-2.9,4.3-2.9,7v7.5c0,0.7,0.2,1.2,0.7,1.7
		c0.5,0.5,1,0.7,1.7,0.7c0.7,0,1.2-0.2,1.7-0.7c0.5-0.5,0.7-1,0.7-1.7v-7.5c0-1.4,0.5-2.6,1.5-3.6c1-1,2.2-1.5,3.6-1.5
		c0.7,0,1.2-0.2,1.7-0.7c0.5-0.5,0.7-1,0.7-1.7C88.3,28.3,88,27.8,87.6,27.3"/>
	<path d="M92.6,26.6c-0.7,0-1.2,0.2-1.7,0.7c-0.5,0.5-0.7,1-0.7,1.7v15.1c0,0.7,0.2,1.2,0.7,1.7c0.5,0.5,1,0.7,1.7,0.7
		c0.7,0,1.2-0.2,1.7-0.7c0.5-0.5,0.7-1,0.7-1.7V29c0-0.7-0.2-1.2-0.7-1.7C93.8,26.8,93.3,26.6,92.6,26.6"/>
</g>
</svg>
